<svg width="32" height="32" viewBox="0 0 32 32" xmlns="http://www.w3.org/2000/svg">
	<!-- Base grass color -->
	<rect width="32" height="32" fill="#90EE90"/>

	<!-- Grass texture - multiple layers of blades -->
	<g opacity="0.6">
		<!-- Layer 1 - darker grass blades -->
		<path d="M4 16 L6 12 L8 16" stroke="#228B22" fill="none"/>
		<path d="M12 20 L14 16 L16 20" stroke="#228B22" fill="none"/>
		<path d="M20 12 L22 8 L24 12" stroke="#228B22" fill="none"/>
		<path d="M28 24 L30 20 L32 24" stroke="#228B22" fill="none"/>
	</g>

	<g opacity="0.8">
		<!-- Layer 2 - lighter grass blades -->
		<path d="M8 24 L10 20 L12 24" stroke="#98FB98" fill="none"/>
		<path d="M16 12 L18 8 L20 12" stroke="#98FB98" fill="none"/>
		<path d="M24 20 L26 16 L28 20" stroke="#98FB98" fill="none"/>
		<path d="M2 20 L4 16 L6 20" stroke="#98FB98" fill="none"/>
	</g>

	<!-- Small flowers/details -->
	<circle cx="8" cy="8" r="0.5" fill="#FFFF00" opacity="0.4"/>
	<circle cx="24" cy="24" r="0.5" fill="#FFFF00" opacity="0.4"/>
	<circle cx="16" cy="16" r="0.5" fill="#FFFF00" opacity="0.4"/>
</svg>
